<svg xmlns="http://www.w3.org/2000/svg" viewBox="0 0 120 120" role="img" aria-label="mill.tools">
  <!-- pas de moinho (treliça). Recolorir: substituir #F4A63C -->
  <polygon points="88.28,21.82 98.18,31.72 96.49,33.41 86.59,23.51" fill="#F4A63C"/><polygon points="61.70,48.40 71.60,58.30 69.90,60.00 60.00,50.10" fill="#F4A63C"/><polygon points="88.28,21.82 89.98,23.51 61.70,51.80 60.00,50.10" fill="#F4A63C"/><polygon points="96.49,30.02 98.18,31.72 69.90,60.00 68.20,58.30" fill="#F4A63C"/><polygon points="92.39,25.92 94.08,27.61 65.80,55.90 64.10,54.20" fill="#F4A63C"/><polygon points="82.06,28.04 91.96,37.94 90.26,39.64 80.36,29.74" fill="#F4A63C"/><polygon points="74.99,35.11 84.89,45.01 83.19,46.71 73.29,36.81" fill="#F4A63C"/><polygon points="67.92,42.18 77.82,52.08 76.12,53.78 66.22,43.88" fill="#F4A63C"/><polygon points="98.18,88.28 88.28,98.18 86.59,96.49 96.49,86.59" fill="#F4A63C"/><polygon points="71.60,61.70 61.70,71.60 60.00,69.90 69.90,60.00" fill="#F4A63C"/><polygon points="98.18,88.28 96.49,89.98 68.20,61.70 69.90,60.00" fill="#F4A63C"/><polygon points="89.98,96.49 88.28,98.18 60.00,69.90 61.70,68.20" fill="#F4A63C"/><polygon points="94.08,92.39 92.39,94.08 64.10,65.80 65.80,64.10" fill="#F4A63C"/><polygon points="91.96,82.06 82.06,91.96 80.36,90.26 90.26,80.36" fill="#F4A63C"/><polygon points="84.89,74.99 74.99,84.89 73.29,83.19 83.19,73.29" fill="#F4A63C"/><polygon points="77.82,67.92 67.92,77.82 66.22,76.12 76.12,66.22" fill="#F4A63C"/><polygon points="31.72,98.18 21.82,88.28 23.51,86.59 33.41,96.49" fill="#F4A63C"/><polygon points="58.30,71.60 48.40,61.70 50.10,60.00 60.00,69.90" fill="#F4A63C"/><polygon points="31.72,98.18 30.02,96.49 58.30,68.20 60.00,69.90" fill="#F4A63C"/><polygon points="23.51,89.98 21.82,88.28 50.10,60.00 51.80,61.70" fill="#F4A63C"/><polygon points="27.61,94.08 25.92,92.39 54.20,64.10 55.90,65.80" fill="#F4A63C"/><polygon points="37.94,91.96 28.04,82.06 29.74,80.36 39.64,90.26" fill="#F4A63C"/><polygon points="45.01,84.89 35.11,74.99 36.81,73.29 46.71,83.19" fill="#F4A63C"/><polygon points="52.08,77.82 42.18,67.92 43.88,66.22 53.78,76.12" fill="#F4A63C"/><polygon points="21.82,31.72 31.72,21.82 33.41,23.51 23.51,33.41" fill="#F4A63C"/><polygon points="48.40,58.30 58.30,48.40 60.00,50.10 50.10,60.00" fill="#F4A63C"/><polygon points="21.82,31.72 23.51,30.02 51.80,58.30 50.10,60.00" fill="#F4A63C"/><polygon points="30.02,23.51 31.72,21.82 60.00,50.10 58.30,51.80" fill="#F4A63C"/><polygon points="25.92,27.61 27.61,25.92 55.90,54.20 54.20,55.90" fill="#F4A63C"/><polygon points="28.04,37.94 37.94,28.04 39.64,29.74 29.74,39.64" fill="#F4A63C"/><polygon points="35.11,45.01 45.01,35.11 46.71,36.81 36.81,46.71" fill="#F4A63C"/><polygon points="42.18,52.08 52.08,42.18 53.78,43.88 43.88,53.78" fill="#F4A63C"/><circle cx="60" cy="60" r="3.6" fill="#F4A63C"/>
</svg>
