<svg xmlns="http://www.w3.org/2000/svg" viewBox="0 0 418 120" role="img" aria-label="mill.tools">
  <g transform="translate(2,7) scale(0.8)"><polygon points="88.28,21.82 98.18,31.72 96.49,33.41 86.59,23.51" fill="#F4A63C"/><polygon points="61.70,48.40 71.60,58.30 69.90,60.00 60.00,50.10" fill="#F4A63C"/><polygon points="88.28,21.82 89.98,23.51 61.70,51.80 60.00,50.10" fill="#F4A63C"/><polygon points="96.49,30.02 98.18,31.72 69.90,60.00 68.20,58.30" fill="#F4A63C"/><polygon points="92.39,25.92 94.08,27.61 65.80,55.90 64.10,54.20" fill="#F4A63C"/><polygon points="82.06,28.04 91.96,37.94 90.26,39.64 80.36,29.74" fill="#F4A63C"/><polygon points="74.99,35.11 84.89,45.01 83.19,46.71 73.29,36.81" fill="#F4A63C"/><polygon points="67.92,42.18 77.82,52.08 76.12,53.78 66.22,43.88" fill="#F4A63C"/><polygon points="98.18,88.28 88.28,98.18 86.59,96.49 96.49,86.59" fill="#F4A63C"/><polygon points="71.60,61.70 61.70,71.60 60.00,69.90 69.90,60.00" fill="#F4A63C"/><polygon points="98.18,88.28 96.49,89.98 68.20,61.70 69.90,60.00" fill="#F4A63C"/><polygon points="89.98,96.49 88.28,98.18 60.00,69.90 61.70,68.20" fill="#F4A63C"/><polygon points="94.08,92.39 92.39,94.08 64.10,65.80 65.80,64.10" fill="#F4A63C"/><polygon points="91.96,82.06 82.06,91.96 80.36,90.26 90.26,80.36" fill="#F4A63C"/><polygon points="84.89,74.99 74.99,84.89 73.29,83.19 83.19,73.29" fill="#F4A63C"/><polygon points="77.82,67.92 67.92,77.82 66.22,76.12 76.12,66.22" fill="#F4A63C"/><polygon points="31.72,98.18 21.82,88.28 23.51,86.59 33.41,96.49" fill="#F4A63C"/><polygon points="58.30,71.60 48.40,61.70 50.10,60.00 60.00,69.90" fill="#F4A63C"/><polygon points="31.72,98.18 30.02,96.49 58.30,68.20 60.00,69.90" fill="#F4A63C"/><polygon points="23.51,89.98 21.82,88.28 50.10,60.00 51.80,61.70" fill="#F4A63C"/><polygon points="27.61,94.08 25.92,92.39 54.20,64.10 55.90,65.80" fill="#F4A63C"/><polygon points="37.94,91.96 28.04,82.06 29.74,80.36 39.64,90.26" fill="#F4A63C"/><polygon points="45.01,84.89 35.11,74.99 36.81,73.29 46.71,83.19" fill="#F4A63C"/><polygon points="52.08,77.82 42.18,67.92 43.88,66.22 53.78,76.12" fill="#F4A63C"/><polygon points="21.82,31.72 31.72,21.82 33.41,23.51 23.51,33.41" fill="#F4A63C"/><polygon points="48.40,58.30 58.30,48.40 60.00,50.10 50.10,60.00" fill="#F4A63C"/><polygon points="21.82,31.72 23.51,30.02 51.80,58.30 50.10,60.00" fill="#F4A63C"/><polygon points="30.02,23.51 31.72,21.82 60.00,50.10 58.30,51.80" fill="#F4A63C"/><polygon points="25.92,27.61 27.61,25.92 55.90,54.20 54.20,55.90" fill="#F4A63C"/><polygon points="28.04,37.94 37.94,28.04 39.64,29.74 29.74,39.64" fill="#F4A63C"/><polygon points="35.11,45.01 45.01,35.11 46.71,36.81 36.81,46.71" fill="#F4A63C"/><polygon points="42.18,52.08 52.08,42.18 53.78,43.88 43.88,53.78" fill="#F4A63C"/><circle cx="60" cy="60" r="3.6" fill="#F4A63C"/></g>
  <g fill="#EAF0F6"><path transform="translate(118.00,86.00) scale(0.06600,-0.06600)" d="M969 325V0H856V308Q856 382 819.0 421.5Q782 461 718 461Q654 461 616.5 421.5Q579 382 579 308V0H466V308Q466 382 429.0 421.5Q392 461 328 461Q264 461 226.5 421.5Q189 382 189 308V0H75V551H189V488Q217 522 260.0 541.0Q303 560 352 560Q418 560 470.0 532.0Q522 504 550 451Q575 501 628.0 530.5Q681 560 742 560Q807 560 858.5 533.0Q910 506 939.5 453.0Q969 400 969 325Z"/><path transform="translate(186.07,86.00) scale(0.06600,-0.06600)" d="M60 697Q60 728 81.0 749.0Q102 770 133 770Q163 770 184.0 749.0Q205 728 205 697Q205 666 184.0 645.0Q163 624 133 624Q102 624 81.0 645.0Q60 666 60 697ZM189 551V0H75V551Z"/><path transform="translate(203.00,86.00) scale(0.06600,-0.06600)" d="M189 740V0H75V740Z"/><path transform="translate(219.92,86.00) scale(0.06600,-0.06600)" d="M189 740V0H75V740Z"/></g>
  <g fill="#F4A63C"><path transform="translate(236.85,86.00) scale(0.06600,-0.06600)" d="M41 47Q41 69 55.5 83.5Q70 98 92 98Q113 98 127.5 83.5Q142 69 142 47Q142 25 127.5 10.0Q113 -5 92 -5Q70 -5 55.5 10.0Q41 25 41 47Z"/><path transform="translate(248.36,86.00) scale(0.06600,-0.06600)" d="M171 487V148Q171 98 190.0 79.0Q209 60 257 60H321V0H246Q172 0 136.0 34.5Q100 69 100 148V487H24V546H100V683H171V546H321V487Z"/><path transform="translate(271.35,86.00) scale(0.06600,-0.06600)" d="M48 273Q48 358 84.0 421.5Q120 485 182.0 519.5Q244 554 321 554Q398 554 460.5 519.5Q523 485 558.5 421.5Q594 358 594 273Q594 189 558.0 125.0Q522 61 459.0 26.5Q396 -8 319 -8Q242 -8 180.5 26.5Q119 61 83.5 124.5Q48 188 48 273ZM522 273Q522 345 494.0 394.5Q466 444 420.0 468.5Q374 493 320 493Q266 493 220.0 468.5Q174 444 146.5 394.5Q119 345 119 273Q119 201 146.5 151.5Q174 102 219.5 77.5Q265 53 319 53Q373 53 419.0 77.5Q465 102 493.5 151.5Q522 201 522 273Z"/><path transform="translate(313.23,86.00) scale(0.06600,-0.06600)" d="M48 273Q48 358 84.0 421.5Q120 485 182.0 519.5Q244 554 321 554Q398 554 460.5 519.5Q523 485 558.5 421.5Q594 358 594 273Q594 189 558.0 125.0Q522 61 459.0 26.5Q396 -8 319 -8Q242 -8 180.5 26.5Q119 61 83.5 124.5Q48 188 48 273ZM522 273Q522 345 494.0 394.5Q466 444 420.0 468.5Q374 493 320 493Q266 493 220.0 468.5Q174 444 146.5 394.5Q119 345 119 273Q119 201 146.5 151.5Q174 102 219.5 77.5Q265 53 319 53Q373 53 419.0 77.5Q465 102 493.5 151.5Q522 201 522 273Z"/><path transform="translate(355.10,86.00) scale(0.06600,-0.06600)" d="M150 740V0H80V740Z"/><path transform="translate(369.71,86.00) scale(0.06600,-0.06600)" d="M48 154H120Q125 108 163.5 79.5Q202 51 267 51Q324 51 356.5 78.0Q389 105 389 145Q389 173 371.0 191.0Q353 209 325.5 219.5Q298 230 251 242Q190 258 152.0 274.0Q114 290 87.5 321.5Q61 353 61 406Q61 446 85.0 480.0Q109 514 153.0 534.0Q197 554 253 554Q341 554 395.0 509.5Q449 465 453 387H383Q380 435 345.5 464.5Q311 494 251 494Q198 494 165.0 469.0Q132 444 132 407Q132 375 151.5 354.5Q171 334 200.0 322.5Q229 311 278 297Q337 281 372.0 266.0Q407 251 432.0 222.0Q457 193 458 145Q458 101 434.0 66.5Q410 32 367.0 12.0Q324 -8 268 -8Q174 -8 114.5 35.5Q55 79 48 154Z"/></g>
</svg>
