<svg xmlns="http://www.w3.org/2000/svg" viewBox="0 0 120 120" role="img" aria-label="mill.tools logo">
  <!-- Para recolorir: substituir todas as ocorrencias de #F4A63C -->
  <g fill="#F4A63C">
    <path d="M60,60 C63,39 74,25 93,20 C82,39 70,48 60,60 Z" transform="rotate(0 60 60)"/>
    <path d="M60,60 C63,39 74,25 93,20 C82,39 70,48 60,60 Z" opacity="0.8" transform="rotate(90 60 60)"/>
    <path d="M60,60 C63,39 74,25 93,20 C82,39 70,48 60,60 Z" transform="rotate(180 60 60)"/>
    <path d="M60,60 C63,39 74,25 93,20 C82,39 70,48 60,60 Z" opacity="0.8" transform="rotate(270 60 60)"/>
    <circle cx="60" cy="60" r="4.6"/>
  </g>
</svg>
